G04 #@! TF.FileFunction,Copper,L2,Bot,Signal*
%FSLAX46Y46*%
G04 Gerber Fmt 4.6, Leading zero omitted, Abs format (unit mm)*
G04 Created by KiCad (PCBNEW 4.0.4-stable) date 10/22/16 14:02:01*
%MOMM*%
%LPD*%
G01*
G04 APERTURE LIST*
%ADD10C,0.100000*%
%ADD11C,2.400000*%
%ADD12O,3.000000X2.000000*%
%ADD13R,3.000000X2.000000*%
%ADD14O,2.032000X2.932000*%
%ADD15O,2.932000X1.727200*%
%ADD16R,2.932000X1.727200*%
%ADD17R,3.000000X1.727200*%
%ADD18O,3.000000X1.727200*%
%ADD19O,2.998980X1.998980*%
%ADD20O,2.900000X2.000000*%
%ADD21R,2.700000X1.700000*%
%ADD22O,1.700000X2.400000*%
%ADD23O,1.700000X2.500000*%
G04 APERTURE END LIST*
D10*
D11*
X142240000Y-86360000D03*
X149424205Y-93544205D03*
D12*
X144780000Y-95520000D03*
D13*
X144780000Y-99500000D03*
D14*
X149860000Y-73260000D03*
X144780000Y-73260000D03*
D15*
X116640000Y-101600000D03*
X116640000Y-99060000D03*
X116640000Y-96520000D03*
X116640000Y-93980000D03*
X116640000Y-91440000D03*
X116640000Y-88900000D03*
X116640000Y-86360000D03*
X116640000Y-83820000D03*
X116570000Y-81280000D03*
D16*
X116570000Y-78740000D03*
X137160000Y-78740000D03*
D15*
X137160000Y-81280000D03*
X137160000Y-83820000D03*
X137160000Y-86360000D03*
X137160000Y-88900000D03*
X137160000Y-91440000D03*
X137160000Y-93980000D03*
X137160000Y-96520000D03*
X137160000Y-99060000D03*
X137160000Y-101600000D03*
D17*
X154940000Y-99060000D03*
D18*
X154940000Y-96520000D03*
X154940000Y-93980000D03*
D19*
X122320000Y-71120000D03*
X132480000Y-71120000D03*
D20*
X129360000Y-60960000D03*
X124060000Y-60960000D03*
X129360000Y-54460000D03*
X124060000Y-54460000D03*
D21*
X144280000Y-82550000D03*
D22*
X147320000Y-82950000D03*
X149860000Y-82950000D03*
X149860000Y-79610000D03*
X147320000Y-79610000D03*
D23*
X144780000Y-79610000D03*
M02*
