M48
;DRILL file {KiCad 4.0.4-stable} date 10/22/16 14:02:04
;FORMAT={-:-/ absolute / metric / decimal}
FMAT,2
METRIC,TZ
T1C1.000
T2C1.001
T3C1.016
T4C1.100
%
G90
G05
M71
T1
X144.78Y-80.01
X144.78Y-82.55
X144.78Y-95.52
X144.78Y-99.5
X147.32Y-80.01
X147.32Y-82.55
X149.86Y-80.01
X149.86Y-82.55
T2
X121.92Y-71.12
X132.08Y-71.12
X142.24Y-86.36
X149.424Y-93.544
T3
X116.84Y-78.74
X116.84Y-81.28
X116.84Y-83.82
X116.84Y-86.36
X116.84Y-88.9
X116.84Y-91.44
X116.84Y-93.98
X116.84Y-96.52
X116.84Y-99.06
X116.84Y-101.6
X137.16Y-78.74
X137.16Y-81.28
X137.16Y-83.82
X137.16Y-86.36
X137.16Y-88.9
X137.16Y-91.44
X137.16Y-93.98
X137.16Y-96.52
X137.16Y-99.06
X137.16Y-101.6
X144.78Y-73.66
X149.86Y-73.66
X154.94Y-93.98
X154.94Y-96.52
X154.94Y-99.06
T4
X124.46Y-54.46
X124.46Y-60.96
X128.96Y-54.46
X128.96Y-60.96
T0
M30
