M48
;DRILL file {KiCad 4.0.4-stable} date 10/20/16 13:25:33
;FORMAT={-:-/ absolute / inch / decimal}
FMAT,2
INCH,TZ
T1C0.031
T2C0.039
T3C0.039
T4C0.040
T5C0.043
%
G90
G05
M72
T1
X5.7Y-3.8
X5.7Y-3.8984
T2
X5.7Y-3.15
X5.7Y-3.25
X5.8Y-3.15
X5.8Y-3.25
X5.9Y-3.15
X5.9Y-3.25
T3
X4.8Y-2.8
X5.2Y-2.8
X5.65Y-3.5
X5.9328Y-3.7828
T4
X4.6Y-3.1
X4.6Y-3.2
X4.6Y-3.3
X4.6Y-3.4
X4.6Y-3.5
X4.6Y-3.6
X4.6Y-3.7
X4.6Y-3.8
X4.6Y-3.9
X4.6Y-4.
X5.4Y-3.1
X5.4Y-3.2
X5.4Y-3.3
X5.4Y-3.4
X5.4Y-3.5
X5.4Y-3.6
X5.4Y-3.7
X5.4Y-3.8
X5.4Y-3.9
X5.4Y-4.
X5.7Y-2.9
X5.9Y-2.9
X6.1Y-3.7
X6.1Y-3.8
X6.1Y-3.9
T5
X4.9Y-2.1441
X4.9Y-2.4
X5.0772Y-2.1441
X5.0772Y-2.4
T0
M30
