G04 #@! TF.FileFunction,Copper,L2,Bot,Signal*
%FSLAX46Y46*%
G04 Gerber Fmt 4.6, Leading zero omitted, Abs format (unit mm)*
G04 Created by KiCad (PCBNEW 4.0.4-stable) date 10/21/16 12:50:52*
%MOMM*%
%LPD*%
G01*
G04 APERTURE LIST*
%ADD10C,0.100000*%
%ADD11C,1.998980*%
%ADD12O,2.000000X2.000000*%
%ADD13R,2.000000X2.000000*%
%ADD14O,2.032000X2.032000*%
%ADD15R,2.032000X2.032000*%
%ADD16O,2.032000X1.727200*%
%ADD17R,2.032000X1.727200*%
%ADD18R,3.000000X1.727200*%
%ADD19O,3.000000X1.727200*%
%ADD20C,2.000000*%
%ADD21R,1.700000X1.700000*%
%ADD22C,1.700000*%
G04 APERTURE END LIST*
D10*
D11*
X142240000Y-86360000D03*
X149424205Y-93544205D03*
D12*
X144780000Y-95520000D03*
D13*
X144780000Y-99500000D03*
D14*
X149860000Y-73660000D03*
D15*
X144780000Y-73660000D03*
D16*
X116840000Y-101600000D03*
X116840000Y-99060000D03*
X116840000Y-96520000D03*
X116840000Y-93980000D03*
X116840000Y-91440000D03*
X116840000Y-88900000D03*
X116840000Y-86360000D03*
X116840000Y-83820000D03*
X116840000Y-81280000D03*
D17*
X116840000Y-78740000D03*
X137160000Y-78740000D03*
D16*
X137160000Y-81280000D03*
X137160000Y-83820000D03*
X137160000Y-86360000D03*
X137160000Y-88900000D03*
X137160000Y-91440000D03*
X137160000Y-93980000D03*
X137160000Y-96520000D03*
X137160000Y-99060000D03*
X137160000Y-101600000D03*
D18*
X154940000Y-99060000D03*
D19*
X154940000Y-96520000D03*
X154940000Y-93980000D03*
D11*
X121920000Y-71120000D03*
X132080000Y-71120000D03*
D20*
X128960000Y-60960000D03*
X124460000Y-60960000D03*
X128960000Y-54460000D03*
X124460000Y-54460000D03*
D21*
X144780000Y-82550000D03*
D22*
X147320000Y-82550000D03*
X149860000Y-82550000D03*
X149860000Y-80010000D03*
X147320000Y-80010000D03*
X144780000Y-80010000D03*
M02*
